# xmcd
#
# Track frame offsets:
#	182
#	12945
#	28297
#	43840
#	53882
#	71515
#	80992
#	97607
#	108170
#	120067
#	137800
#	148315
#
# Disc length: 2117 seconds
#
# Revision: 1
# Processed by: cddbd v1.5.1PL0 Copyright (c) Steve Scherf et al.
# Submitted via: audiograbber 1.82.02
#
DISCID=a208430c
DTITLE=Rob L G - Straight From The Heart
DYEAR=1900
DGENRE=Country
TTITLE0=Born On The Wind
TTITLE1=My Women, My Women, My Wife
TTITLE2=A Bird On A Telephone Line
TTITLE3=Our Great Wheat Fields
TTITLE4=You Can't Live On Beer Alone
TTITLE5=Saddle Tramp
TTITLE6=Dance Halls
TTITLE7=In This Cell
TTITLE8=Gurly Jack
TTITLE9=Picture In A Frame
TTITLE10=Make The World Go Away
TTITLE11=Long Tall Sally
EXTD=
EXTT0=
EXTT1=
EXTT2=
EXTT3=
EXTT4=
EXTT5=
EXTT6=
EXTT7=
EXTT8=
EXTT9=
EXTT10=
EXTT11=
PLAYORDER=
